<?xml version="1.0" encoding="UTF-8" ?>
<!DOCTYPE svg PUBLIC "-//W3C//DTD SVG 1.1//EN" "http://www.w3.org/Graphics/SVG/1.1/DTD/svg11.dtd">
<svg width="618pt" height="591pt" viewBox="0 0 618 591" version="1.1" xmlns="http://www.w3.org/2000/svg">
<g id="#878787ff">
</g>
<g id="#780504ff">
<path fill="#780504" opacity="1.00" d=" M 166.32 46.32 C 248.45 0.83 352.54 -1.94 437.01 38.98 C 500.30 69.06 552.13 122.33 580.63 186.33 C 582.96 191.92 586.02 197.40 586.52 203.54 C 582.75 205.63 579.30 208.21 575.93 210.86 C 555.10 161.29 522.84 115.81 479.23 83.77 C 411.63 31.72 319.27 13.89 237.17 37.23 C 153.03 60.15 81.89 124.53 49.13 205.13 C 48.29 207.28 47.17 209.32 45.41 210.85 C 41.40 207.02 36.72 203.13 30.76 204.43 C 53.25 137.09 104.36 80.37 166.32 46.32 Z" />
<path fill="#780504" opacity="1.00" d=" M 12.19 326.00 C 11.10 297.89 11.18 268.92 19.51 241.83 C 17.57 253.23 34.17 257.08 31.36 268.38 C 22.32 320.41 30.47 374.59 51.10 422.97 C 78.92 487.14 131.98 539.31 195.67 567.81 C 191.95 571.45 188.37 575.23 184.62 578.84 C 86.51 534.89 16.46 433.78 12.19 326.00 Z" />
<path fill="#780504" opacity="1.00" d=" M 600.58 250.02 C 609.11 292.47 607.94 336.83 597.86 378.94 C 577.69 463.64 517.98 537.73 439.68 575.70 C 433.26 579.11 429.75 570.51 425.34 567.38 C 488.88 541.06 540.91 488.73 569.29 426.23 C 591.02 377.33 599.70 322.04 590.69 269.08 C 587.94 260.65 596.70 256.08 600.58 250.02 Z" />
</g>
<g id="#030303ff">
<path fill="#030303" opacity="1.00" d=" M 237.17 37.23 C 319.27 13.89 411.63 31.72 479.23 83.77 C 522.84 115.81 555.10 161.29 575.93 210.86 C 579.30 208.21 582.75 205.63 586.52 203.54 C 593.15 218.37 596.43 234.38 600.58 250.02 C 596.70 256.08 587.94 260.65 590.69 269.08 C 599.70 322.04 591.02 377.33 569.29 426.23 C 540.91 488.73 488.88 541.06 425.34 567.38 C 409.25 548.34 390.54 531.69 373.34 513.67 C 370.15 510.59 367.11 506.03 362.07 506.59 C 328.02 506.65 293.98 507.06 259.93 506.83 C 256.33 506.41 253.41 508.62 251.18 511.17 C 232.71 530.09 214.53 549.28 195.67 567.81 C 131.98 539.31 78.92 487.14 51.10 422.97 C 30.47 374.59 22.32 320.41 31.36 268.38 C 34.17 257.08 17.57 253.23 19.51 241.83 C 22.69 229.21 26.21 216.63 30.76 204.43 C 36.72 203.13 41.40 207.02 45.41 210.85 C 47.17 209.32 48.29 207.28 49.13 205.13 C 81.89 124.53 153.03 60.15 237.17 37.23 M 145.15 150.15 C 115.57 179.13 95.58 217.17 85.60 257.17 C 85.25 258.86 86.71 260.10 87.65 261.29 C 134.94 308.63 183.28 354.97 231.95 400.87 C 242.27 389.54 252.68 378.14 262.14 366.08 C 258.07 360.54 254.16 354.66 249.08 350.01 C 225.93 340.39 203.65 328.70 180.91 318.11 C 174.01 315.45 174.31 306.97 171.88 301.13 C 159.65 266.80 147.63 232.38 134.82 198.28 C 133.18 194.19 138.10 195.71 140.17 196.71 C 164.94 207.88 189.77 219.01 214.39 230.56 C 229.58 238.41 242.56 249.83 256.83 259.17 C 260.55 262.06 266.34 264.43 266.29 269.94 C 266.49 294.88 268.25 319.81 270.56 344.62 C 279.90 370.05 294.81 393.61 303.39 419.18 C 291.45 403.44 279.80 387.42 267.18 372.18 C 263.52 383.37 259.04 394.42 256.33 405.86 C 262.32 414.96 269.27 425.01 279.69 429.47 C 280.10 440.25 279.12 451.10 279.95 461.86 C 282.75 466.13 288.72 464.26 293.00 464.69 C 309.60 463.93 326.18 465.15 342.78 464.57 C 345.35 452.73 343.69 440.56 344.51 428.60 C 353.39 423.10 360.31 414.62 365.68 405.87 C 363.00 394.70 358.79 383.83 354.95 372.98 C 342.17 388.93 331.04 406.20 317.98 421.91 C 327.56 396.48 341.07 372.58 351.17 347.36 C 353.72 321.66 355.45 295.80 355.70 269.95 C 355.58 264.69 361.08 262.38 364.62 259.60 C 381.32 248.60 396.40 234.85 415.01 227.01 C 439.32 216.06 463.49 204.72 487.98 194.18 C 475.79 230.80 461.76 266.84 449.44 303.43 C 447.52 308.66 447.18 315.93 441.08 318.14 C 418.01 328.69 395.64 340.89 372.04 350.18 C 367.35 354.88 363.75 360.64 360.00 366.11 C 369.25 378.24 379.78 389.52 390.02 400.82 C 437.23 356.13 484.50 311.44 530.70 265.70 C 532.81 263.96 534.40 261.45 533.39 258.64 C 522.17 209.12 493.78 163.59 454.19 131.81 C 414.92 99.79 364.70 81.48 314.02 80.83 C 251.45 79.20 188.25 104.57 145.15 150.15 M 190.85 258.02 C 196.26 276.09 202.14 294.29 209.28 311.69 C 220.54 316.18 232.08 321.04 244.21 322.66 C 244.40 309.16 244.59 295.62 244.12 282.13 C 226.59 273.70 208.88 265.35 190.85 258.02 M 377.92 282.17 C 377.34 295.64 377.62 309.17 377.79 322.66 C 389.90 321.00 401.46 316.17 412.72 311.69 C 420.19 294.30 425.31 275.72 431.63 257.79 C 413.47 265.26 395.55 273.55 377.92 282.17 M 79.54 309.33 C 77.92 389.60 122.32 468.98 191.92 509.00 C 207.59 496.92 220.26 481.25 234.86 467.91 C 236.94 466.54 239.50 466.28 241.86 465.64 C 242.85 456.20 242.17 446.62 241.83 437.15 C 230.60 433.33 217.69 438.78 207.04 433.88 C 167.77 394.52 128.02 355.62 88.91 316.09 C 86.01 313.65 83.80 309.23 79.54 309.33 M 419.65 429.66 C 409.81 441.27 393.38 432.73 380.62 436.63 C 379.80 446.27 379.11 456.04 380.12 465.68 C 382.28 466.21 384.56 466.50 386.58 467.52 C 401.25 480.25 413.60 496.60 428.95 507.97 C 491.57 471.28 533.40 402.34 538.79 330.05 C 538.93 323.54 540.53 316.70 538.34 310.41 C 499.26 350.62 459.02 389.71 419.65 429.66 Z" />
<path fill="#030303" opacity="1.00" d=" M 305.64 88.71 C 306.67 86.68 308.75 85.98 310.86 85.67 C 329.49 117.18 347.71 149.03 366.75 180.28 C 369.43 184.79 372.71 190.80 368.60 195.56 C 354.34 213.78 337.03 229.53 322.45 247.41 C 318.55 302.17 318.76 357.47 314.77 412.22 C 311.28 412.82 307.90 413.90 304.76 415.53 C 301.45 360.69 298.90 305.79 295.93 250.94 C 295.82 249.11 295.31 247.27 294.04 245.91 C 278.77 229.58 262.70 213.90 247.85 197.25 C 245.01 186.04 253.81 176.13 258.89 166.85 C 275.50 141.44 289.93 114.68 305.64 88.71 M 309.26 145.93 C 299.58 164.75 287.82 182.58 278.99 201.79 C 289.01 209.96 299.33 217.87 309.94 225.26 C 319.42 216.45 328.65 207.29 337.56 197.91 C 328.23 180.54 319.18 162.94 309.26 145.93 Z" />
</g>
<g id="#aeaeaeff">
<path fill="#aeaeae" opacity="1.00" d=" M 145.15 150.15 C 188.25 104.57 251.45 79.20 314.02 80.83 C 364.70 81.48 414.92 99.79 454.19 131.81 C 493.78 163.59 522.17 209.12 533.39 258.64 C 534.40 261.45 532.81 263.96 530.70 265.70 C 484.50 311.44 437.23 356.13 390.02 400.82 C 379.78 389.52 369.25 378.24 360.00 366.11 C 363.75 360.64 367.35 354.88 372.04 350.18 C 395.64 340.89 418.01 328.69 441.08 318.14 C 447.18 315.93 447.52 308.66 449.44 303.43 C 461.76 266.84 475.79 230.80 487.98 194.18 C 463.49 204.72 439.32 216.06 415.01 227.01 C 396.40 234.85 381.32 248.60 364.62 259.60 C 361.08 262.38 355.58 264.69 355.70 269.95 C 355.45 295.80 353.72 321.66 351.17 347.36 C 341.07 372.58 327.56 396.48 317.98 421.91 C 331.04 406.20 342.17 388.93 354.95 372.98 C 358.79 383.83 363.00 394.70 365.68 405.87 C 360.31 414.62 353.39 423.10 344.51 428.60 C 343.69 440.56 345.35 452.73 342.78 464.57 C 326.18 465.15 309.60 463.93 293.00 464.69 C 288.72 464.26 282.75 466.13 279.95 461.86 C 279.12 451.10 280.10 440.25 279.69 429.47 C 269.27 425.01 262.32 414.96 256.33 405.86 C 259.04 394.42 263.52 383.37 267.18 372.18 C 279.80 387.42 291.45 403.44 303.39 419.18 C 294.81 393.61 279.90 370.05 270.56 344.62 C 268.25 319.81 266.49 294.88 266.29 269.94 C 266.34 264.43 260.55 262.06 256.83 259.17 C 242.56 249.83 229.58 238.41 214.39 230.56 C 189.77 219.01 164.94 207.88 140.17 196.71 C 138.10 195.71 133.18 194.19 134.82 198.28 C 147.63 232.38 159.65 266.80 171.88 301.13 C 174.31 306.97 174.01 315.45 180.91 318.11 C 203.65 328.70 225.93 340.39 249.08 350.01 C 254.16 354.66 258.07 360.54 262.14 366.08 C 252.68 378.14 242.27 389.54 231.95 400.87 C 183.28 354.97 134.94 308.63 87.65 261.29 C 86.71 260.10 85.25 258.86 85.60 257.17 C 95.58 217.17 115.57 179.13 145.15 150.15 M 305.64 88.71 C 289.93 114.68 275.50 141.44 258.89 166.85 C 253.81 176.13 245.01 186.04 247.85 197.25 C 262.70 213.90 278.77 229.58 294.04 245.91 C 295.31 247.27 295.82 249.11 295.93 250.94 C 298.90 305.79 301.45 360.69 304.76 415.53 C 307.90 413.90 311.28 412.82 314.77 412.22 C 318.76 357.47 318.55 302.17 322.45 247.41 C 337.03 229.53 354.34 213.78 368.60 195.56 C 372.71 190.80 369.43 184.79 366.75 180.28 C 347.71 149.03 329.49 117.18 310.86 85.67 C 308.75 85.98 306.67 86.68 305.64 88.71 Z" />
<path fill="#aeaeae" opacity="1.00" d=" M 309.26 145.93 C 319.18 162.94 328.23 180.54 337.56 197.91 C 328.65 207.29 319.42 216.45 309.94 225.26 C 299.33 217.87 289.01 209.96 278.99 201.79 C 287.82 182.58 299.58 164.75 309.26 145.93 Z" />
<path fill="#aeaeae" opacity="1.00" d=" M 190.85 258.02 C 208.88 265.35 226.59 273.70 244.12 282.13 C 244.59 295.62 244.40 309.16 244.21 322.66 C 232.08 321.04 220.54 316.18 209.28 311.69 C 202.14 294.29 196.26 276.09 190.85 258.02 Z" />
<path fill="#aeaeae" opacity="1.00" d=" M 377.92 282.17 C 395.55 273.55 413.47 265.26 431.63 257.79 C 425.31 275.72 420.19 294.30 412.72 311.69 C 401.46 316.17 389.90 321.00 377.79 322.66 C 377.62 309.17 377.34 295.64 377.92 282.17 Z" />
<path fill="#aeaeae" opacity="1.00" d=" M 79.54 309.33 C 83.80 309.23 86.01 313.65 88.91 316.09 C 128.02 355.62 167.77 394.52 207.04 433.88 C 217.69 438.78 230.60 433.33 241.83 437.15 C 242.17 446.62 242.85 456.20 241.86 465.64 C 239.50 466.28 236.94 466.54 234.86 467.91 C 220.26 481.25 207.59 496.92 191.92 509.00 C 122.32 468.98 77.92 389.60 79.54 309.33 Z" />
<path fill="#aeaeae" opacity="1.00" d=" M 419.65 429.66 C 459.02 389.71 499.26 350.62 538.34 310.41 C 540.53 316.70 538.93 323.54 538.79 330.05 C 533.40 402.34 491.57 471.28 428.95 507.97 C 413.60 496.60 401.25 480.25 386.58 467.52 C 384.56 466.50 382.28 466.21 380.12 465.68 C 379.11 456.04 379.80 446.27 380.62 436.63 C 393.38 432.73 409.81 441.27 419.65 429.66 Z" />
</g>
</svg>
